<?xml version="1.0" encoding="UTF-8"?>
<!DOCTYPE svg  PUBLIC '-//W3C//DTD SVG 1.1//EN'  'http://www.w3.org/Graphics/SVG/1.1/DTD/svg11.dtd'>
<svg clip-rule="evenodd" fill-rule="evenodd" stroke-linejoin="round" stroke-miterlimit="1.4142" version="1.1" viewBox="0 0 49 49" xml:space="preserve" xmlns="http://www.w3.org/2000/svg"><g fill="#323232" fill-rule="nonzero"><path d="m24.5 0c-13.531 0-24.5 10.969-24.5 24.5s10.969 24.5 24.5 24.5 24.5-10.969 24.5-24.5-10.969-24.5-24.5-24.5zm0 47c-12.407 0-22.5-10.094-22.5-22.5 0-12.407 10.093-22.5 22.5-22.5 12.406 0 22.5 10.093 22.5 22.5 0 12.406-10.094 22.5-22.5 22.5z"/><path d="m34.811 19.342c0.86-1.711 1.88-4.987 0.433-9.482-0.122-0.378-0.457-0.649-0.853-0.688-0.39-0.04-0.777 0.159-0.972 0.506-1.271 2.268-4.038 5.927-6.047 6.094-0.03 2e-3 -0.054 0.019-0.083 0.024-1.49-0.287-2.689-0.296-2.789-0.296-0.103 0-1.311 9e-3 -2.801 0.292-0.025-4e-3 -0.045-0.019-0.071-0.021-2.004-0.167-4.773-3.827-6.048-6.095-0.195-0.346-0.577-0.543-0.972-0.505-0.396 0.04-0.73 0.31-0.852 0.688-1.448 4.494-0.427 7.771 0.433 9.482-1.744 0.22-3.954 0.777-4.757 2.188-0.388 0.682-0.38 1.464 0.024 2.201 0.514 0.939 1.399 1.245 2.334 1.245 0.816 0 1.668-0.233 2.349-0.482-4e-3 0.54 0.026 1.08 0.129 1.612 0.288 1.496 1.131 3.636 1.748 5.197 0.188 0.479 0.396 1.004 0.509 1.324-0.235 0.614-0.672 1.812-0.766 2.484-0.112 0.801 0.114 2.147 1.121 3.306 1.443 1.659 4.006 2.5 7.619 2.5 3.612 0 6.176-0.841 7.619-2.5 1.007-1.158 1.233-2.505 1.121-3.306-0.094-0.673-0.53-1.87-0.767-2.484 0.114-0.319 0.32-0.843 0.509-1.32 0.617-1.563 1.462-3.704 1.75-5.201 0.103-0.535 0.135-1.073 0.135-1.61 0.679 0.248 1.528 0.48 2.342 0.48 0.936 0 1.82-0.306 2.334-1.245 0.404-0.737 0.412-1.519 0.024-2.201-0.801-1.41-3.011-1.967-4.755-2.187zm-0.953-6.634c0.428 3.06-0.477 5.157-1.031 6.112-0.246-0.303-0.512-0.595-0.798-0.872-0.544-0.526-1.199-0.934-1.891-1.258 1.483-1.051 2.801-2.673 3.72-3.982zm-18.716 2e-3c0.916 1.304 2.229 2.919 3.706 3.97-0.701 0.329-1.359 0.744-1.892 1.283-0.276 0.279-0.533 0.57-0.771 0.872-0.549-0.943-1.468-3.054-1.043-6.125zm-3.932 10.06c-0.089-0.163-0.063-0.21-0.04-0.25 0.223-0.391 1.387-1.006 3.609-1.233-0.116 0.29-0.217 0.582-0.302 0.878-1.265 0.673-2.998 1.091-3.267 0.605zm21.558 2.959c-0.252 1.313-1.058 3.354-1.646 4.844-0.398 1.01-0.609 1.552-0.683 1.877l-0.066 0.302 0.114 0.287c0.283 0.71 0.711 1.908 0.772 2.351 1e-3 9e-3 0.096 0.858-0.649 1.716-0.72 0.826-2.363 1.812-6.11 1.812s-5.391-0.986-6.11-1.812c-0.746-0.857-0.651-1.707-0.65-1.716 0.062-0.441 0.489-1.641 0.772-2.352l0.114-0.286-0.066-0.302c-0.072-0.326-0.284-0.869-0.683-1.881-0.587-1.489-1.392-3.528-1.645-4.841-0.422-2.198 0.379-4.575 2.145-6.358 1.513-1.528 4.933-1.868 6.123-1.871 1.166 0 4.539 0.339 6.139 1.886 2.081 2.014 2.465 4.597 2.129 6.344zm5.021-2.959c-0.263 0.479-1.974 0.07-3.238-0.592-0.084-0.3-0.183-0.596-0.297-0.888 2.198 0.23 3.354 0.84 3.575 1.229 0.024 0.041 0.05 0.087-0.04 0.251z"/></g></svg>
