<?xml version="1.0" encoding="UTF-8" standalone="no"?><!DOCTYPE svg PUBLIC "-//W3C//DTD SVG 1.1//EN" "http://www.w3.org/Graphics/SVG/1.1/DTD/svg11.dtd"><svg width="100%" height="100%" viewBox="0 0 32 32" version="1.1" xmlns="http://www.w3.org/2000/svg" xmlns:xlink="http://www.w3.org/1999/xlink" xml:space="preserve" xmlns:serif="http://www.serif.com/" style="fill-rule:evenodd;clip-rule:evenodd;stroke-linejoin:round;stroke-miterlimit:1.41421;"><path d="M16,0c-8.836,0 -16,7.163 -16,16c0,8.837 7.164,16 16,16c8.837,0 16,-7.164 16,-16c0,-8.836 -7.163,-16 -16,-16Zm4.062,9.455l-3.021,0l0,3.444l3.021,0l0,3.445l-3.021,0l0,8.61l-3.021,0l0,-8.61l-3.02,0l0,-3.445l3.021,0l0,-3.444c0,-1.902 1.353,-3.445 3.021,-3.445l3.021,0l0,3.445l-0.001,0Z" style="fill:#e6ebe9;fill-rule:nonzero;"/></svg>