<?xml version="1.0" encoding="UTF-8"?>
<!DOCTYPE svg  PUBLIC '-//W3C//DTD SVG 1.1//EN'  'http://www.w3.org/Graphics/SVG/1.1/DTD/svg11.dtd'>
<svg clip-rule="evenodd" fill-rule="evenodd" stroke-linejoin="round" stroke-miterlimit="1.4142" version="1.1" viewBox="0 0 49 49" xml:space="preserve" xmlns="http://www.w3.org/2000/svg"><g fill="#323232" fill-rule="nonzero"><path d="m24.5 0c-13.531 0-24.5 10.969-24.5 24.5s10.969 24.5 24.5 24.5 24.5-10.969 24.5-24.5-10.969-24.5-24.5-24.5zm0 47c-12.407 0-22.5-10.094-22.5-22.5 0-12.407 10.093-22.5 22.5-22.5 12.406 0 22.5 10.093 22.5 22.5 0 12.406-10.094 22.5-22.5 22.5z"/><path d="m24.5 7.625c-4.355 0-7.94 3.278-8.436 7.5h-0.064v16.917h17v-16.917h-0.063c-0.497-4.222-4.082-7.5-8.437-7.5zm6.5 22.417h-13v-9.257c0.275 0.337 0.705 0.631 1.542 0.631 1.292 0 2.125-0.713 2.125-1.625v-0.875c0-0.472 0.382-0.854 0.854-0.854s0.854 0.382 0.854 0.854c0 9e-3 -5e-3 0.017-5e-3 0.025 0 7e-3 5e-3 0.01 5e-3 0.017v3.292s-0.031 1.833 2.125 1.833c2.109 0 2.125-1.75 2.125-1.75v-2.25h1e-3c0-2e-3 -1e-3 -3e-3 -1e-3 -5e-3 0-0.742 0.602-1.344 1.344-1.344s1.344 0.602 1.344 1.344c0 0.031 0.021 0.088 0.021 0.088s0.034 0.609 0.667 0.894v8.982h-1e-3z"/><path d="m23 40.125c0 0.828 0.671 1.5 1.5 1.5 0.828 0 1.5-0.672 1.5-1.5v-7.125h-3v7.125z"/></g></svg>
