<?xml version="1.0" encoding="UTF-8" standalone="no"?><!DOCTYPE svg PUBLIC "-//W3C//DTD SVG 1.1//EN" "http://www.w3.org/Graphics/SVG/1.1/DTD/svg11.dtd"><svg width="100%" height="100%" viewBox="0 0 32 32" version="1.1" xmlns="http://www.w3.org/2000/svg" xmlns:xlink="http://www.w3.org/1999/xlink" xml:space="preserve" xmlns:serif="http://www.serif.com/" style="fill-rule:evenodd;clip-rule:evenodd;stroke-linejoin:round;stroke-miterlimit:1.41421;"><g><path d="M20.916,16c0,2.728 -2.211,4.938 -4.938,4.938c-2.727,0 -4.939,-2.21 -4.939,-4.938c0,-0.394 0.051,-0.773 0.138,-1.14l-0.897,0l0,6.838l11.396,0l0,-6.838l-0.897,0c0.086,0.367 0.137,0.746 0.137,1.14Z" style="fill:#e6ebe9;fill-rule:nonzero;"/><path d="M15.978,18.659c1.466,0 2.659,-1.193 2.659,-2.659c0,-1.466 -1.193,-2.659 -2.659,-2.659c-1.466,0 -2.659,1.193 -2.659,2.659c0,1.466 1.192,2.659 2.659,2.659Z" style="fill:#e6ebe9;fill-rule:nonzero;"/><rect x="18.637" y="10.302" width="3.039" height="3.039" style="fill:#e6ebe9;"/><path d="M16,0c-8.836,0 -16,7.164 -16,16c0,8.837 7.164,16 16,16c8.837,0 16,-7.163 16,-16c0,-8.836 -7.163,-16 -16,-16Zm7.955,21.698c0,1.254 -1.025,2.279 -2.279,2.279l-11.397,0c-1.253,0.001 -2.279,-1.025 -2.279,-2.279l0,-11.396c0,-1.253 1.026,-2.279 2.279,-2.279l11.396,0c1.254,0 2.279,1.026 2.279,2.279l0,11.396l0.001,0Z" style="fill:#e6ebe9;fill-rule:nonzero;"/></g></svg>