<?xml version="1.0" encoding="UTF-8"?>
<!DOCTYPE svg  PUBLIC '-//W3C//DTD SVG 1.1//EN'  'http://www.w3.org/Graphics/SVG/1.1/DTD/svg11.dtd'>
<svg clip-rule="evenodd" fill-rule="evenodd" stroke-linejoin="round" stroke-miterlimit="1.4142" version="1.1" viewBox="0 0 49 49" xml:space="preserve" xmlns="http://www.w3.org/2000/svg"><g fill="#323232" fill-rule="nonzero"><path d="m24.5 0c-13.531 0-24.5 10.969-24.5 24.5s10.969 24.5 24.5 24.5 24.5-10.969 24.5-24.5-10.969-24.5-24.5-24.5zm0 47c-12.407 0-22.5-10.094-22.5-22.5 0-12.407 10.093-22.5 22.5-22.5 12.406 0 22.5 10.093 22.5 22.5 0 12.406-10.094 22.5-22.5 22.5z"/><path d="m34.807 26.756c-0.45-9.493-9.197-18.693-9.586-19.097-0.015-0.015-0.033-0.023-0.048-0.037-0.037-0.034-0.076-0.062-0.118-0.09-0.042-0.029-0.084-0.055-0.13-0.077-0.018-9e-3 -0.032-0.022-0.051-0.03-0.027-0.011-0.056-0.011-0.083-0.02-0.048-0.015-0.095-0.027-0.145-0.034-0.051-8e-3 -0.101-0.01-0.152-0.01-0.045 0-0.089 2e-3 -0.134 8e-3 -0.055 8e-3 -0.105 0.021-0.158 0.038-0.025 8e-3 -0.052 8e-3 -0.076 0.018-0.018 7e-3 -0.031 0.021-0.049 0.029-0.047 0.022-0.09 0.049-0.133 0.079-0.042 0.028-0.081 0.057-0.118 0.091-0.015 0.013-0.033 0.021-0.046 0.036-0.389 0.404-9.14 9.608-9.587 19.105-8e-3 0.067-0.017 0.133-0.011 0.202-0.013 0.363-0.017 0.727-3e-3 1.091 0.369 10.256 9.978 12.82 10.075 12.845 0.082 0.021 0.165 0.031 0.247 0.031s0.165-0.01 0.247-0.031c0.097-0.024 9.706-2.589 10.074-12.845 0.013-0.363 9e-3 -0.727-3e-3 -1.089 6e-3 -0.073-4e-3 -0.142-0.012-0.213zm-18.024-3.506c2.219 2.058 5.368 3.521 6.717 4.091v4.552c-2.448-1.196-6.219-3.341-7.302-5.228 0.07-1.143 0.279-2.287 0.585-3.415zm2.024-5.096c1.513 1.688 3.602 2.646 4.693 3.059v3.94c-1.654-0.76-4.424-2.216-6.016-4.043 0.388-1.016 0.834-2.008 1.323-2.956zm12.711 2.954c-1.59 1.824-4.362 3.283-6.018 4.044v-3.939c1.092-0.413 3.183-1.372 4.695-3.062 0.489 0.949 0.935 1.94 1.323 2.957zm-6.018-2.061v-8.008c1.033 1.279 2.387 3.1 3.651 5.229-0.953 1.374-2.536 2.276-3.651 2.779zm0 12.846v-4.552c1.35-0.569 4.499-2.034 6.719-4.092 0.305 1.128 0.515 2.273 0.584 3.417-1.083 1.883-4.855 4.029-7.303 5.227zm-2-12.843c-1.113-0.5-2.694-1.399-3.649-2.779 1.264-2.129 2.617-3.95 3.649-5.229v8.008zm-7.117 10.775c2.328 1.983 5.69 3.629 7.117 4.281v4.403c-2.092-0.904-6.162-3.331-7.117-8.684zm9.117 8.696v-4.415c1.428-0.653 4.792-2.3 7.121-4.284-0.95 5.411-5.02 7.813-7.121 8.699z"/></g></svg>
