<?xml version="1.0" encoding="UTF-8" standalone="no"?><!DOCTYPE svg PUBLIC "-//W3C//DTD SVG 1.1//EN" "http://www.w3.org/Graphics/SVG/1.1/DTD/svg11.dtd"><svg width="100%" height="100%" viewBox="0 0 31 36" version="1.1" xmlns="http://www.w3.org/2000/svg" xmlns:xlink="http://www.w3.org/1999/xlink" xml:space="preserve" xmlns:serif="http://www.serif.com/" style="fill-rule:evenodd;clip-rule:evenodd;stroke-linejoin:round;stroke-miterlimit:1.41421;"><path d="M11,21l7.451,0c5.247,0 9.5,-4.253 9.5,-9.5c0,-5.247 -4.253,-9.5 -9.5,-9.5l-7.451,0l-3.621,0l-1.379,0l0,14l-4,0l0,5l4,0l0,3l-4,0l0,5l4,0l0,4l5,0l0,-4l15,0l0,-5l-15,0l0,-3Zm0,-14l7.451,0l0,-0.03c2.501,0 4.529,2.028 4.529,4.53c0,2.502 -2.028,4.53 -4.529,4.53l0,-0.03l-7.451,0l0,-9Z" style="fill:#fff;fill-rule:nonzero;"/></svg>